<svg viewBox="0 0 72 72" xmlns="http://www.w3.org/2000/svg">
  <!-- Head shape -->
  <path d="M36 60c-16 0-28-12-28-24s12-24 28-24 28 12 28 24-12 24-28 24z" fill="#8B4513"/>
  
  <!-- Lighter face area -->
  <path d="M36 54c-12 0-22-8-22-18s10-18 22-18 22 8 22 18-10 18-22 18z" fill="#DEB887"/>
  
  <!-- Eyes -->
  <ellipse cx="26" cy="30" rx="4" ry="5" fill="white"/>
  <ellipse cx="46" cy="30" rx="4" ry="5" fill="white"/>
  <circle cx="26" cy="30" r="2" fill="black"/>
  <circle cx="46" cy="30" r="2" fill="black"/>
  
  <!-- Nose -->
  <ellipse cx="36" cy="38" rx="6" ry="4" fill="black"/>
  
  <!-- Teeth -->
  <rect x="32" y="42" width="8" height="10" fill="white" stroke="black" stroke-width="1"/>
  <line x1="36" y1="42" x2="36" y2="52" stroke="black" stroke-width="1"/>
  
  <!-- Whiskers -->
  <g stroke="black" stroke-width="1">
    <line x1="42" y1="38" x2="58" y2="34"/>
    <line x1="42" y1="40" x2="58" y2="40"/>
    <line x1="42" y1="42" x2="58" y2="46"/>
    <line x1="30" y1="38" x2="14" y2="34"/>
    <line x1="30" y1="40" x2="14" y2="40"/>
    <line x1="30" y1="42" x2="14" y2="46"/>
  </g>
</svg>
